<svg xmlns="http://www.w3.org/2000/svg" width="73.899" height="130.744"><path d="M62.53 130.744H11.369A11.37 11.37 0 010 119.375V11.369A11.37 11.37 0 0111.369 0H62.53A11.37 11.37 0 0173.9 11.369v108.006a11.37 11.37 0 01-11.37 11.369zm5.684-119.375a5.687 5.687 0 00-5.684-5.684H11.369a5.687 5.687 0 00-5.685 5.685v11.368h62.53zm0 17.054H5.685v73.9h62.53zm0 79.583H5.685v11.369a5.687 5.687 0 005.685 5.685h51.16a5.687 5.687 0 005.685-5.685zm-31.265 14.211a5.685 5.685 0 115.685-5.685 5.687 5.687 0 01-5.685 5.685zm-19.9-85.268h5.685a2.841 2.841 0 012.842 2.842v5.685a2.841 2.841 0 01-2.842 2.842h-5.68a2.841 2.841 0 01-2.842-2.842v-5.684a2.841 2.841 0 012.842-2.843zm0 19.9h5.685a2.841 2.841 0 012.842 2.842v5.685a2.84 2.84 0 01-2.842 2.842h-5.68a2.84 2.84 0 01-2.842-2.842v-5.688a2.841 2.841 0 012.842-2.843zm0 19.9h5.685a2.84 2.84 0 012.842 2.842v5.685a2.84 2.84 0 01-2.842 2.842h-5.68a2.84 2.84 0 01-2.842-2.842v-5.693a2.84 2.84 0 012.842-2.842zm17.058-39.8h5.685a2.841 2.841 0 012.842 2.842v5.685a2.841 2.841 0 01-2.842 2.842h-5.685a2.841 2.841 0 01-2.842-2.842v-5.684a2.841 2.841 0 012.842-2.843zm0 19.9h5.685a2.841 2.841 0 012.842 2.842v5.685a2.84 2.84 0 01-2.842 2.842h-5.685a2.84 2.84 0 01-2.842-2.842v-5.688a2.841 2.841 0 012.842-2.843zm0 19.9h5.685a2.84 2.84 0 012.842 2.842v5.685a2.84 2.84 0 01-2.842 2.842h-5.685a2.84 2.84 0 01-2.842-2.842v-5.693a2.84 2.84 0 012.842-2.842zm17.054-39.8h5.685a2.841 2.841 0 012.842 2.842v5.685a2.841 2.841 0 01-2.842 2.842h-5.685a2.841 2.841 0 01-2.842-2.842v-5.684a2.841 2.841 0 012.842-2.843zm0 19.9h5.685a2.841 2.841 0 012.842 2.842v5.685a2.84 2.84 0 01-2.842 2.842h-5.685a2.84 2.84 0 01-2.842-2.842v-5.688a2.841 2.841 0 012.842-2.843zm-22.738-45.48h17.053a2.842 2.842 0 010 5.685H28.423a2.842 2.842 0 110-5.685z" fill="#fff" fill-rule="evenodd"/></svg>