<svg xmlns="http://www.w3.org/2000/svg" width="116.173" height="103.531"><path d="M116.173 90.903a12.626 12.626 0 01-12.628 12.628H12.628A12.626 12.626 0 010 90.903v-73.24a10.1 10.1 0 0110.1-10.1h50.944L81.5.152a2.5 2.5 0 013.2 1.488l2.154 5.922h9.115a10.1 10.1 0 0110.1 10.1v5.052a10.1 10.1 0 0110.1 10.1zM10.1 12.612a5.051 5.051 0 100 10.1h9.18c.033-.013.053-.04.086-.053L47.1 12.612zm73.437.457l-2.68-7.384-5.18 1.876h.008l-13.929 5.051h-.025L33.852 22.714h53.192zm17.482 4.594a5.053 5.053 0 00-5.051-5.051h-7.28l3.672 10.1h8.66zm5.051 10.1H10.1a9.989 9.989 0 01-5.051-1.4v64.54a7.578 7.578 0 007.577 7.577h90.918a7.576 7.576 0 007.577-7.577V73.224h-10.1a10.1 10.1 0 010-20.2h10.1v-20.2a5.053 5.053 0 00-5.05-5.059zm5.051 40.408v-10.1h-10.1a5.051 5.051 0 000 10.1zm-10.101-7.577h5.051v5.051h-5.051z" fill="#fff" fill-rule="evenodd"/></svg>