<svg xmlns="http://www.w3.org/2000/svg" width="123.107" height="101.697"><path d="M112.4 101.7H10.7A10.705 10.705 0 010 90.992V10.7A10.705 10.705 0 0110.7 0h101.7a10.705 10.705 0 0110.7 10.7v80.292a10.705 10.705 0 01-10.7 10.708zm5.354-91a5.354 5.354 0 00-5.352-5.352H10.7A5.354 5.354 0 005.352 10.7v16.062h112.4zm0 21.41H5.352v58.882a5.354 5.354 0 005.352 5.352H112.4a5.354 5.354 0 005.352-5.352zm-10.7 37.467H101.7a2.675 2.675 0 01-2.676-2.676v-5.348a2.677 2.677 0 012.676-2.676h5.352a2.675 2.675 0 012.676 2.676v5.352a2.674 2.674 0 01-2.679 2.677zm0-18.734H101.7a2.675 2.675 0 01-2.676-2.676V42.82a2.676 2.676 0 012.676-2.676h5.352a2.674 2.674 0 012.676 2.676v5.352a2.674 2.674 0 01-2.679 2.676zM85.639 69.582h-5.352a2.675 2.675 0 01-2.676-2.676v-5.353a2.677 2.677 0 012.676-2.676h5.352a2.675 2.675 0 012.676 2.676v5.352a2.674 2.674 0 01-2.676 2.677zm0-18.734h-5.352a2.675 2.675 0 01-2.676-2.676V42.82a2.675 2.675 0 012.676-2.676h5.352a2.674 2.674 0 012.676 2.676v5.352a2.674 2.674 0 01-2.676 2.676zm-21.41 18.734h-5.352a2.674 2.674 0 01-2.677-2.676v-5.353a2.675 2.675 0 012.676-2.676h5.352a2.675 2.675 0 012.676 2.676v5.352a2.674 2.674 0 01-2.675 2.677zm0-18.734h-5.352a2.674 2.674 0 01-2.677-2.676V42.82a2.674 2.674 0 012.676-2.676h5.352a2.674 2.674 0 012.676 2.676v5.352a2.674 2.674 0 01-2.675 2.676zM42.82 88.316h-5.353a2.674 2.674 0 01-2.676-2.676v-5.353a2.674 2.674 0 012.676-2.676h5.353a2.674 2.674 0 012.68 2.676v5.352a2.674 2.674 0 01-2.68 2.677zm0-18.734h-5.353a2.674 2.674 0 01-2.676-2.676v-5.353a2.675 2.675 0 012.676-2.676h5.353a2.675 2.675 0 012.68 2.676v5.352a2.674 2.674 0 01-2.68 2.677zm0-18.734h-5.353a2.674 2.674 0 01-2.676-2.676V42.82a2.674 2.674 0 012.676-2.676h5.353a2.674 2.674 0 012.68 2.676v5.352a2.674 2.674 0 01-2.68 2.676zM21.41 88.316h-5.353a2.674 2.674 0 01-2.676-2.676v-5.353a2.674 2.674 0 012.676-2.676h5.353a2.674 2.674 0 012.676 2.676v5.352a2.674 2.674 0 01-2.676 2.677zm0-18.734h-5.353a2.674 2.674 0 01-2.676-2.676v-5.353a2.675 2.675 0 012.676-2.676h5.353a2.675 2.675 0 012.676 2.676v5.352a2.674 2.674 0 01-2.676 2.677zm37.467 8.029h5.352a2.674 2.674 0 012.676 2.676v5.352a2.674 2.674 0 01-2.676 2.676h-5.352a2.674 2.674 0 01-2.677-2.676v-5.352a2.674 2.674 0 012.677-2.676z" fill="#fff" fill-rule="evenodd"/></svg>